# xmcd CD database file
#
# Track frame offsets:
#	150
#	25420
#	56306
#	66355
#	79480
#	91565
#	102676
#	111120
#	123607
#	131326
#	146700
#	159450
#	176358
#	195896
#	207781
#	251466
#	276815
#	291103
#	305009
#	316281
#	325887
#	342274
#
# Disc length: 4778 seconds
#
# Revision: 1
# Processed by: cddbd v1.5.1PL0 Copyright (c) Steve Scherf et al.
# Submitted via: CDex 1.50Beta7
#
DISCID=3f12a816
DTITLE=VARIOUS ARTIST - TO DHMOTIKO TRAGOUDI EINAI EDW CD 1
DYEAR=1900
DGENRE=
TTITLE0=KATW STA PENTE MARMARA - SANTAMERIANA - PARHGGEILA STO GAMO SOY
TTITLE1=MHLITSA - KATW APO MIA MHLIA - O HLIOS BASILEVEI
TTITLE2=PARE MARIW TH ROKA SOY
TTITLE3=PERA 8ELW NA PERASW
TTITLE4=BATOYS KAI AGKA8IA
TTITLE5=TWRA TO BRADY BRADY
TTITLE6=TRIA KALA EINAI STO NTOYNIA
TTITLE7=PAPAKI
TTITLE8=M' EKAPSES GEITONISA 
TTITLE9=POYLAKI XENO
TTITLE10=H MATZOYRANA
TTITLE11=APOPSE H POYLIA MALWNE
TTITLE12=PARAPONIARIKA PAIDIA
TTITLE13=ITIA ITIA
TTITLE14=MHLO MOY KOKKINO - AMAN MARIA
TTITLE15=EISAI DIAMANTI - H 8HBA EXEI OMORFES - PAPADOPOYLA LEBENTONIA
TTITLE16=SIGA THN AMAXA
TTITLE17=MOY PARHGGEILE TO AHDONI
TTITLE18=STOY PAPA TA MPALKONAKIA
TTITLE19=EDW DEN EINAI LEIBADIA
TTITLE20=MH ME KOITAS POY GERASA
TTITLE21=AGGELW KRAINEI H MANA SOY
EXTD=
EXTT0=
EXTT1=
EXTT2=
EXTT3=
EXTT4=
EXTT5=
EXTT6=
EXTT7=
EXTT8=
EXTT9=
EXTT10=
EXTT11=
EXTT12=
EXTT13=
EXTT14=
EXTT15=
EXTT16=
EXTT17=
EXTT18=
EXTT19=
EXTT20=
EXTT21=
PLAYORDER=
